HIERARCHY
ROOT Pelvis
{
	OFFSET 0.000000 0.000000 0.000000
	CHANNELS 6 Xposition Yposition Zposition Zrotation Yrotation Xrotation 
	JOINT Left_hip
	{
		OFFSET 0.069463 -0.088608 -0.009542
		CHANNELS 3 Zrotation Yrotation Xrotation
		JOINT Left_knee
		{
			OFFSET 0.030639 -0.359740 -0.005288
			CHANNELS 3 Zrotation Yrotation Xrotation
			JOINT Left_ankle
			{
				OFFSET -0.011068 -0.376034 -0.042462
				CHANNELS 3 Zrotation Yrotation Xrotation
				JOINT Left_foot
				{
					OFFSET 0.023192 -0.053321 0.111332
					CHANNELS 3 Zrotation Yrotation Xrotation
					End Site
					{
						OFFSET 0.000000 0.000000 0.000000
					}
				}
			}
		}
	}
	JOINT Right_hip
	{
		OFFSET -0.067438 -0.088025 -0.006263
		CHANNELS 3 Zrotation Yrotation Xrotation
		JOINT Right_knee
		{
			OFFSET -0.035962 -0.366229 -0.008063
			CHANNELS 3 Zrotation Yrotation Xrotation
			JOINT Right_ankle
			{
				OFFSET 0.013608 -0.375719 -0.040481
				CHANNELS 3 Zrotation Yrotation Xrotation
				JOINT Right_foot
				{
					OFFSET -0.021034 -0.045527 0.114617
					CHANNELS 3 Zrotation Yrotation Xrotation
					End Site
					{
						OFFSET 0.000000 0.000000 0.000000
					}
				}
			}
		}
	}
	JOINT Spine1
	{
		OFFSET -0.002610 0.101823 -0.019986
		CHANNELS 3 Zrotation Yrotation Xrotation
		JOINT Spine2
		{
			OFFSET 0.004114 0.128714 -0.000938
			CHANNELS 3 Zrotation Yrotation Xrotation
			JOINT Spine3
			{
				OFFSET 0.002191 0.048470 0.027684
				CHANNELS 3 Zrotation Yrotation Xrotation
				JOINT Neck
				{
					OFFSET -0.002856 0.198873 -0.044022
					CHANNELS 3 Zrotation Yrotation Xrotation
					JOINT Head
					{
						OFFSET 0.002981 0.062960 0.049860
						CHANNELS 3 Zrotation Yrotation Xrotation
						End Site
						{
							OFFSET 0.000000 0.000000 0.000000
						}
					}
				}
				JOINT Left_collar
				{
					OFFSET 0.073708 0.112550 -0.033440
					CHANNELS 3 Zrotation Yrotation Xrotation
					JOINT Left_shoulder
					{
						OFFSET 0.083291 0.030786 -0.008013
						CHANNELS 3 Zrotation Yrotation Xrotation
						JOINT Left_elbow
						{
							OFFSET 0.245601 -0.011792 -0.027873
							CHANNELS 3 Zrotation Yrotation Xrotation
							JOINT Left_wrist
							{
								OFFSET 0.232258 0.008622 -0.000487
								CHANNELS 3 Zrotation Yrotation Xrotation
								JOINT Left_palm
								{
									OFFSET 0.077300 -0.009457 -0.012851
									CHANNELS 3 Zrotation Yrotation Xrotation
									End Site
									{
										OFFSET 0.000000 0.000000 0.000000
									}
								}
							}
						}
					}
				}
				JOINT Right_collar
				{
					OFFSET -0.075339 0.110574 -0.037874
					CHANNELS 3 Zrotation Yrotation Xrotation
					JOINT Right_shoulder
					{
						OFFSET -0.086522 0.031207 -0.009986
						CHANNELS 3 Zrotation Yrotation Xrotation
						JOINT Right_elbow
						{
							OFFSET -0.237313 -0.011478 -0.019859
							CHANNELS 3 Zrotation Yrotation Xrotation
							JOINT Right_wrist
							{
								OFFSET -0.237599 0.007976 -0.003742
								CHANNELS 3 Zrotation Yrotation Xrotation
								JOINT Right_palm
								{
									OFFSET -0.076920 -0.006943 -0.009920
									CHANNELS 3 Zrotation Yrotation Xrotation
									End Site
									{
										OFFSET 0.000000 0.000000 0.000000
									}
								}
							}
						}
					}
				}
			}
		}
	}
}
MOTION
Frames: 10
Frame Time: 0.100000
0.634778 0.669336 -3.347664 -41.672753 -83.816304 -153.537801 2.747333 4.733379 35.878460 4.673827 -37.618494 -4.344792 -5.485843 1.899345 -8.607299 -3.089625 14.025927 2.275740 -1.588656 -1.464966 1.011000 -1.364139 -5.972562 -4.707890 3.307340 3.339483 -2.100762 15.441394 -17.829873 -2.545877 2.663249 0.590085 19.236116 3.010617 -0.299451 1.145746 6.027323 3.990345 -5.661303 14.303307 -17.704678 10.283507 18.780721 -17.554852 -19.552006 0.044548 -5.589203 -6.822638 -21.166230 -4.312774 -12.895393 41.964862 -36.242625 -43.382325 6.256199 -4.006634 -0.903229 2.479786 2.533190 -2.032443 -4.539493 24.191463 -12.563745 57.067576 28.948599 24.881326 176.276218 63.739272 -151.315304 -21.790085 5.501074 -3.462167 3.052957 8.344862 4.032770 
0.723363 0.690010 -3.382893 -91.244062 -85.636682 -104.107632 5.122938 3.815936 39.078522 4.438934 -40.243176 -0.846884 -4.806839 0.700564 -8.694618 -5.964017 14.022642 0.127012 1.393254 0.843304 -0.336527 -1.880156 -2.685027 8.068976 0.298333 9.448071 -0.903415 22.170410 -21.274715 -6.004263 2.582103 -1.099200 18.006187 2.559797 1.185814 0.957120 5.727430 3.849124 -7.121875 15.416031 -21.348412 11.797035 19.779005 -16.306784 -19.838596 -4.400508 -1.461815 -5.247546 -28.017815 -3.198902 -11.276146 53.116211 -40.303974 -49.195046 1.616049 -3.927682 -3.969278 4.405874 2.960914 -0.556648 -2.496134 22.513775 -10.070919 59.582029 26.593080 26.131517 165.859165 63.857027 -159.285866 -18.293578 5.301204 -4.996252 1.760396 7.743265 6.621654 
0.823411 0.689726 -3.414449 -157.656000 -81.799279 -37.603549 7.963568 1.557136 36.522847 0.980867 -41.506773 11.966896 -11.003245 0.503553 -0.303401 -2.008470 12.012068 -3.814506 3.667675 0.085435 4.657686 -0.665776 -4.147831 10.658465 -4.019325 6.178138 -2.673048 23.161704 -21.995744 -5.554036 2.406783 -1.552544 14.170352 2.934697 -0.490484 -0.633599 5.385672 2.578944 -7.521606 14.139339 -23.438650 13.888239 18.704237 -16.922659 -17.049104 -4.070137 -0.493408 -4.608566 -27.126707 -2.758066 -11.785208 49.007895 -37.391798 -45.110686 1.099079 -4.000664 -2.625250 4.790224 3.565627 -2.384463 -4.166012 20.267913 -11.955588 57.333149 27.707838 25.003596 168.077925 63.363649 -156.471292 -18.475038 5.536948 -7.547183 0.067429 6.654161 8.609781 
0.908545 0.690732 -3.440413 -175.133932 -72.946580 -21.214522 11.639687 1.053366 22.431592 -7.006061 -31.711335 39.913134 -20.558352 2.202438 15.528155 2.547251 9.495499 -9.160982 7.049595 -5.422677 16.639814 -0.309038 -4.193435 -0.797885 -6.812232 2.897714 -1.712322 19.976093 -20.521973 -4.281599 1.661691 1.534175 12.422278 3.546937 -4.328170 -0.457827 5.782020 1.558317 -6.971671 8.518523 -24.781779 13.697485 19.722957 -17.153591 -18.661136 -0.059011 -5.227491 -4.863461 -22.922761 -3.893379 -13.329218 39.229368 -33.431146 -38.981754 4.354244 -3.580988 -1.644302 2.171657 2.699679 -4.127656 -8.011409 20.616402 -14.316775 53.264933 28.174820 20.700343 176.791985 62.572544 -149.323706 -21.737458 4.133523 -11.092765 2.472557 6.740419 7.827172 
0.975144 0.710322 -3.446493 -177.115734 -64.854138 -23.903928 9.850862 -0.291604 9.892682 -5.381811 -17.779740 62.709593 -14.210476 9.447333 13.899809 -0.298028 8.790197 -8.820372 8.297294 -8.977553 26.935191 0.094645 -4.836520 -3.680410 -13.478814 -2.033261 -4.469962 25.234127 -22.140421 -3.072008 2.461293 4.215743 16.195231 3.697104 -6.031572 0.955074 5.571291 1.183940 -5.476644 -1.403659 -25.922001 13.315247 14.758210 -17.622773 -19.675443 -0.528550 -8.995565 -4.126200 -21.194592 -5.587414 -13.998583 36.898156 -34.820197 -37.155765 5.802066 -1.978299 -4.919175 1.776808 2.624630 -1.158395 -5.984830 22.371993 -13.744108 49.149335 26.912336 19.605499 178.340463 62.010118 -147.303117 -23.480283 2.494270 -8.813851 3.348767 7.291026 6.236648 
1.026732 0.712193 -3.437330 -169.984508 -59.293409 -31.562369 4.057570 -0.255236 -3.032259 -4.982192 -6.873416 65.856786 -6.105370 7.328259 3.661835 -3.979878 13.096428 -9.629543 4.715545 -11.609384 29.602724 -1.892171 -4.849388 0.633721 -11.065880 -6.059583 -6.322339 20.921810 -17.359540 -5.495623 3.725060 6.246580 19.775332 0.783990 -4.705772 0.548568 3.867290 2.152849 -3.683349 -8.942094 -15.297670 7.780647 3.325640 -8.854759 -19.247855 -2.294282 -8.487081 -4.270103 -24.504502 -7.192455 -13.770335 39.697524 -41.801790 -35.515850 4.414854 -2.110643 -7.945037 1.914647 1.906532 2.872798 -2.852149 22.247816 -11.313129 52.192260 26.138777 22.832121 174.290137 62.660183 -151.437255 -22.423185 3.665883 -2.577962 5.109338 8.305808 4.988603 
1.074181 0.698675 -3.417744 -161.717527 -55.350620 -35.094088 -0.750348 0.171491 -12.566219 -0.954229 1.801337 45.321712 -2.648129 7.738453 0.514220 -2.241754 15.625433 -7.816612 0.769432 -12.030127 29.975560 -4.153799 -3.651729 -0.610668 -5.828035 -9.040188 -3.969455 15.218966 -13.126396 -7.472540 4.636328 7.795739 20.487060 -3.663387 -3.016885 -1.718278 1.427431 3.873502 -2.345353 -18.036048 -3.091699 3.845708 -8.356603 0.582874 -19.725693 0.362904 -7.704442 -6.921702 -23.408076 -7.586307 -15.125143 36.039590 -40.395177 -33.347181 4.175069 -2.988027 -7.470245 1.182177 1.434999 2.449655 -5.616829 22.604512 -11.972079 53.015758 31.831650 24.690747 -177.591424 63.231019 -146.639403 -23.945546 5.219168 0.786338 7.355223 8.734851 1.722428 
1.132782 0.689476 -3.385381 -159.492291 -53.268014 -32.795096 -3.279669 4.775620 -11.530218 -0.512802 5.319669 9.787602 -4.084066 6.056993 1.765070 2.308156 15.900316 -4.238122 -1.965397 -13.949210 31.531058 -4.329022 -3.990066 -3.201641 -0.859075 -8.350767 -1.870707 11.596081 -10.307778 -9.019293 4.922768 8.504704 18.591797 -6.130336 -1.861045 -2.881922 0.213480 5.538973 -2.219278 -21.171892 -0.363144 3.146094 -10.632974 -0.024536 -19.387495 2.839422 -5.741681 -9.288852 -21.558120 -6.149845 -16.363906 36.526304 -39.493388 -34.016858 5.831954 -3.939478 -2.843102 -0.548981 1.159191 -0.898089 -7.977557 23.040461 -11.964708 54.208318 34.196577 24.183723 -175.389332 63.037916 -146.594053 -24.997293 7.344227 1.168036 9.426757 9.060160 -0.397422 
1.202683 0.696384 -3.329933 -159.374878 -52.123835 -31.101432 -4.954004 3.646837 -9.024288 -0.491354 3.720019 -1.009451 -4.050728 5.704200 5.663620 1.038193 15.793817 -2.744167 -3.455271 -13.291889 34.711987 -4.392732 -4.541434 -1.409960 -2.130708 -6.677122 -1.297686 17.266704 -12.183354 -9.950065 4.842297 8.900377 17.110900 -5.930745 -1.108148 -2.812300 0.005022 5.967741 -3.107409 -20.662303 -0.859250 3.617394 -11.625674 -1.431185 -19.725001 0.635987 -2.617192 -9.056670 -20.647507 -4.111058 -16.253069 39.501101 -38.162204 -36.097871 5.404669 -4.915319 -0.307082 1.197692 2.331577 -0.615165 -4.604684 22.624056 -10.819495 56.057884 34.507837 27.588029 177.861469 64.932335 -152.209088 -23.467391 8.528257 2.132193 6.814359 7.897244 1.551959 
1.272611 0.680632 -3.254542 -156.524891 -47.993563 -32.071731 -9.980894 -3.426489 -7.860757 -1.078879 -0.527033 5.262447 1.982862 5.895599 8.464649 -4.177125 17.938988 -5.839858 -8.053607 -10.653329 33.210908 -5.116181 -3.984899 9.543715 1.624645 -5.199457 8.090364 16.911754 -12.120568 -13.707104 4.231876 9.345255 14.233296 -6.701931 0.436236 -2.143572 -1.413907 5.836001 -2.761533 -21.079529 -3.325837 5.055624 -13.166127 -1.349296 -18.856039 -2.886760 0.477654 -7.325802 -25.199333 -6.553916 -14.177256 43.850431 -38.354170 -39.827630 4.195504 -4.102108 -2.403212 1.970725 2.981962 2.186857 -1.114422 20.811585 -9.069955 59.895608 31.242905 33.083072 171.155082 65.914936 -158.216741 -20.896715 8.523016 5.016572 5.213278 7.407030 2.631159 
